<?xml version="1.0" standalone="no"?>
<!DOCTYPE svg PUBLIC "-//W3C//DTD SVG 20010904//EN"
 "http://www.w3.org/TR/2001/REC-SVG-20010904/DTD/svg10.dtd">
<svg version="1.0" xmlns="http://www.w3.org/2000/svg"
 width="674.000000pt" height="674.000000pt" viewBox="0 0 674.000000 674.000000"
 preserveAspectRatio="xMidYMid meet">
<metadata>
Created by potrace 1.11, written by Peter Selinger 2001-2013
</metadata>
<g transform="translate(0.000000,674.000000) scale(0.100000,-0.100000)"
fill="#000000" stroke="none">
<path d="M2940 6704 c-513 -70 -1007 -256 -1429 -539 -270 -180 -548 -426
-725 -640 -436 -527 -688 -1127 -767 -1825 -15 -136 -15 -524 0 -665 86 -797
418 -1499 967 -2049 553 -553 1266 -887 2063 -966 147 -14 503 -12 656 4 581
63 1117 264 1595 599 129 91 310 239 385 316 27 28 54 51 60 52 15 1 194 200
286 318 376 486 604 1042 685 1676 25 191 25 594 1 785 -83 642 -322 1213
-713 1705 -113 142 -389 417 -529 528 -486 385 -1049 623 -1661 702 -77 10
-178 15 -281 13 l-160 -3 1563 -1575 c860 -866 1607 -1621 1661 -1678 l97
-103 -1670 -1670 c-918 -918 -1674 -1668 -1680 -1667 -12 3 -3327 3335 -3333
3350 -2 6 718 733 1600 1617 883 883 1631 1634 1664 1669 l59 62 -144 -1 c-80
-1 -192 -7 -250 -15z"/>
<path d="M1691 5046 c-915 -915 -1662 -1669 -1660 -1674 4 -9 3298 -3324 3309
-3330 3 -1 754 747 1669 1662 l1663 1663 -1198 1209 c-659 665 -1405 1417
-1658 1672 l-461 462 -1664 -1664z m-138 -1194 c74 -37 123 -88 159 -168 22
-48 23 -61 29 -479 4 -242 12 -454 18 -484 20 -97 27 -91 -108 -91 l-118 0
-12 78 c-19 122 -19 122 -53 61 -57 -105 -121 -148 -217 -149 -130 0 -233 110
-248 263 -9 100 35 235 102 316 39 45 170 123 292 172 l105 42 -4 102 c-6 125
-23 163 -84 183 -63 20 -113 0 -141 -58 -13 -25 -23 -63 -23 -87 l0 -43 -126
0 -126 0 7 53 c21 155 101 264 227 309 41 14 75 18 154 16 90 -3 107 -7 167
-36z m1674 23 c136 -41 210 -152 228 -348 l7 -77 -126 0 -126 0 0 58 c0 66
-22 142 -49 166 -22 20 -68 33 -98 28 -31 -5 -67 -45 -82 -89 -34 -105 -33
-632 2 -714 24 -57 53 -79 108 -79 83 0 119 53 119 179 l0 61 126 0 127 0 -7
-68 c-25 -257 -139 -372 -367 -372 -187 0 -290 82 -341 273 -39 150 -41 564
-3 712 52 202 152 284 346 285 47 0 108 -7 136 -15z m1858 1 c38 -16 72 -63
81 -114 l7 -34 56 55 c87 85 127 102 243 102 111 0 139 -13 173 -81 19 -37 20
-62 23 -606 l3 -568 -121 0 -120 0 0 503 c0 383 -3 508 -13 527 -10 20 -21 26
-55 28 -47 4 -130 -30 -169 -67 l-23 -22 0 -484 0 -485 -120 0 -120 0 0 503
c0 383 -3 508 -13 527 -24 48 -126 38 -205 -20 l-42 -30 0 -490 0 -490 -120 0
-120 0 0 625 0 625 120 0 120 0 0 -70 c0 -38 4 -70 8 -70 4 0 24 16 43 36 38
40 102 80 157 100 50 18 165 17 207 0z"/>
<path d="M1415 3204 c-130 -84 -164 -134 -165 -237 0 -96 40 -147 115 -147 44
0 82 21 114 62 19 24 21 39 21 197 0 94 -4 171 -8 171 -4 0 -39 -21 -77 -46z"/>
</g>
</svg>
